<svg width="22.000000" height="22.000000" viewBox="0 0 22 22" fill="none" xmlns="http://www.w3.org/2000/svg" xmlns:xlink="http://www.w3.org/1999/xlink">
	<desc>
			Created with Pixso.
	</desc>
	<defs>
		<clipPath id="clip57_1111">
			<rect id="ph:instagram-logo" width="22.000000" height="22.000000" fill="white" fill-opacity="0"/>
		</clipPath>
	</defs>
	<rect id="ph:instagram-logo" width="22.000000" height="22.000000" fill="#FFFFFF" fill-opacity="0"/>
	<g clip-path="url(#clip57_1111)">
		<path id="Vector" d="M11 6.875C10.1841 6.875 9.38672 7.1167 8.70825 7.57031C8.03003 8.02344 7.50122 8.66748 7.18896 9.42139C6.87671 10.1753 6.79517 11.0044 6.95435 11.8047C7.11353 12.605 7.50635 13.3398 8.08325 13.917C8.66016 14.4937 9.39502 14.8867 10.1953 15.0459C10.9954 15.2051 11.8247 15.123 12.5786 14.811C13.3323 14.499 13.9766 13.9702 14.4299 13.2915C14.8831 12.6133 15.125 11.8159 15.125 11C15.1238 9.90625 14.689 8.85791 13.9155 8.08447C13.1423 7.31104 12.0938 6.87598 11 6.875ZM11 13.75C10.4561 13.75 9.92432 13.5889 9.47217 13.2866C9.02002 12.9844 8.66748 12.5547 8.45923 12.0522C8.25122 11.5498 8.19678 10.9971 8.30273 10.4634C8.40894 9.93018 8.6709 9.43994 9.05542 9.05566C9.43994 8.6709 9.93018 8.40918 10.4636 8.30273C10.9971 8.19678 11.5498 8.25098 12.0525 8.45947C12.5549 8.66748 12.9844 9.02002 13.2866 9.47217C13.5886 9.92432 13.75 10.4561 13.75 11C13.75 11.7295 13.4602 12.4287 12.9446 12.9443C12.4287 13.4604 11.7292 13.75 11 13.75ZM15.125 2.0625L6.875 2.0625C5.59912 2.06396 4.37573 2.57129 3.47363 3.47363C2.57129 4.37598 2.06396 5.59912 2.0625 6.875L2.0625 15.125C2.06396 16.4009 2.57129 17.624 3.47363 18.5264C4.37573 19.4287 5.59912 19.936 6.875 19.9375L15.125 19.9375C16.4009 19.936 17.6243 19.4287 18.5264 18.5264C19.4287 17.624 19.936 16.4009 19.9375 15.125L19.9375 6.875C19.936 5.59912 19.4287 4.37598 18.5264 3.47363C17.6243 2.57129 16.4009 2.06396 15.125 2.0625ZM18.5625 15.125C18.5625 16.0366 18.2004 16.9111 17.5557 17.5557C16.9111 18.2002 16.0366 18.5625 15.125 18.5625L6.875 18.5625C5.96338 18.5625 5.08887 18.2002 4.44434 17.5557C3.79956 16.9111 3.4375 16.0366 3.4375 15.125L3.4375 6.875C3.4375 5.96338 3.79956 5.08887 4.44434 4.44434C5.08887 3.7998 5.96338 3.4375 6.875 3.4375L15.125 3.4375C16.0366 3.4375 16.9111 3.7998 17.5557 4.44434C18.2004 5.08887 18.5625 5.96338 18.5625 6.875L18.5625 15.125ZM16.5 6.53125C16.5 6.73535 16.4395 6.93457 16.3262 7.104C16.2129 7.27393 16.0518 7.40576 15.8633 7.48389C15.675 7.56201 15.4675 7.58252 15.2676 7.54248C15.0676 7.50293 14.8838 7.40479 14.7395 7.26025C14.5952 7.11621 14.4971 6.93262 14.4573 6.73242C14.4175 6.53223 14.438 6.3252 14.5161 6.13672C14.594 5.94824 14.7263 5.78711 14.8958 5.67383C15.0654 5.56055 15.2649 5.5 15.4688 5.5C15.7422 5.5 16.0046 5.60889 16.198 5.80225C16.3914 5.99561 16.5 6.25781 16.5 6.53125Z" fill="#000000" fill-opacity="1.000000" fill-rule="nonzero"/>
	</g>
</svg>
