<svg width="22.000000" height="22.000000" viewBox="0 0 22 22" fill="none" xmlns="http://www.w3.org/2000/svg" xmlns:xlink="http://www.w3.org/1999/xlink">
	<desc>
			Created with Pixso.
	</desc>
	<defs>
		<clipPath id="clip57_1113">
			<rect id="typcn:social-linkedin-circular" width="22.000000" height="22.000000" fill="white" fill-opacity="0"/>
		</clipPath>
	</defs>
	<rect id="typcn:social-linkedin-circular" width="22.000000" height="22.000000" fill="#FFFFFF" fill-opacity="0"/>
	<g clip-path="url(#clip57_1113)">
		<path id="Vector" d="M9.19702 14.0249L7.73022 14.0249L7.73022 9.25928L9.19702 9.25928L9.19702 14.0249ZM8.46362 8.64795C7.93457 8.64795 7.66968 8.40332 7.66968 7.91455C7.66821 7.81641 7.68774 7.71924 7.72729 7.62939C7.76685 7.53955 7.82544 7.45947 7.89893 7.39453C8.05176 7.25195 8.25464 7.17529 8.46362 7.18115C8.99243 7.18115 9.25732 7.42676 9.25732 7.91553C9.25732 8.40381 8.99341 8.64795 8.46362 8.64795ZM14.6365 14.0249L13.1394 14.0249L13.1394 11.3667C13.1394 10.6748 12.8938 10.3281 12.4053 10.3281C12.0183 10.3281 11.7644 10.5215 11.6409 10.9082C11.6013 10.9697 11.5803 11.0928 11.5803 11.2749L11.5803 14.0249L10.0833 14.0249L10.0833 10.7866C10.0833 10.0532 10.0723 9.54443 10.053 9.25928L11.3364 9.25928L11.428 9.8999C11.7644 9.39014 12.2532 9.13623 12.925 9.13623C13.4355 9.13623 13.8472 9.31445 14.1626 9.6709C14.4797 10.0273 14.6375 10.5415 14.6375 11.2144L14.6375 14.0249L14.6365 14.0249ZM11 19.25C6.45068 19.25 2.75 15.5493 2.75 11C2.75 6.45068 6.45068 2.75 11 2.75C15.5493 2.75 19.25 6.45068 19.25 11C19.25 15.5493 15.5493 19.25 11 19.25ZM11 4.5835C7.46265 4.5835 4.58325 7.4624 4.58325 11C4.58325 14.5376 7.46265 17.4165 11 17.4165C14.5374 17.4165 17.4167 14.5376 17.4167 11C17.4167 7.4624 14.5374 4.5835 11 4.5835Z" fill="#000000" fill-opacity="1.000000" fill-rule="nonzero"/>
	</g>
</svg>
