<svg width="22.000000" height="22.000000" viewBox="0 0 22 22" fill="none" xmlns="http://www.w3.org/2000/svg" xmlns:xlink="http://www.w3.org/1999/xlink">
	<desc>
			Created with Pixso.
	</desc>
	<defs>
		<clipPath id="clip57_1115">
			<rect id="streamline:computer-logo-youtube-youtube-clip-social-video" width="22.000000" height="22.000000" fill="white" fill-opacity="0"/>
		</clipPath>
	</defs>
	<rect id="streamline:computer-logo-youtube-youtube-clip-social-video" width="22.000000" height="22.000000" fill="#FFFFFF" fill-opacity="0"/>
	<g clip-path="url(#clip57_1115)">
		<path id="Vector" d="M18.0713 3.14258C19.8071 3.14258 21.2141 4.5498 21.2141 6.28564L21.2141 15.7139C21.2141 17.4497 19.8071 18.8569 18.0713 18.8569L3.92847 18.8569C2.19287 18.8569 0.785645 17.4497 0.785645 15.7139L0.785645 6.28564C0.785645 4.5498 2.19287 3.14258 3.92847 3.14258L18.0713 3.14258Z" stroke="#000000" stroke-opacity="1.000000" stroke-width="1.000000" stroke-linejoin="round"/>
		<path id="Vector" d="M8.34424 8.0459C8.34106 7.93457 8.36816 7.82422 8.42285 7.72705C8.47754 7.62988 8.55762 7.5498 8.65479 7.49463C8.75171 7.43994 8.86182 7.41211 8.97314 7.41504C9.08472 7.41846 9.19312 7.45166 9.28711 7.51172L14.9443 10.8115C15.0388 10.8672 15.1172 10.9463 15.1716 11.0415C15.2261 11.1367 15.2546 11.2441 15.2546 11.354C15.2546 11.4634 15.2261 11.5713 15.1716 11.666C15.1172 11.7612 15.0388 11.8403 14.9443 11.896L9.28711 15.1958C9.19116 15.2515 9.08228 15.2803 8.97144 15.2803C8.8606 15.2798 8.75171 15.2505 8.65601 15.1943C8.5603 15.1387 8.4812 15.0586 8.42627 14.9624C8.37158 14.8657 8.34326 14.7568 8.34424 14.646L8.34424 8.0459Z" stroke="#000000" stroke-opacity="1.000000" stroke-width="1.000000" stroke-linejoin="round"/>
	</g>
</svg>
